<svg width="36" height="36" viewBox="0 0 36 36" fill="none" xmlns="http://www.w3.org/2000/svg">
<g opacity="0.6">
<path d="M3.00015 32.25H33.0002M27.0002 23.25H27.0137M27.0002 27.75H27.0137M9.00015 27.75H9.01365M9.00015 23.25H9.01365M9.00015 18.75H9.01365M9.00015 14.25H9.01365M11.6852 8.088L24.3272 14.385M12.0002 6.75C12.0002 7.54565 11.6841 8.30871 11.1215 8.87132C10.5589 9.43393 9.7958 9.75 9.00015 9.75C8.2045 9.75 7.44144 9.43393 6.87883 8.87132C6.31622 8.30871 6.00015 7.54565 6.00015 6.75C6.00015 5.95435 6.31622 5.19129 6.87883 4.62868C7.44144 4.06607 8.2045 3.75 9.00015 3.75C9.7958 3.75 10.5589 4.06607 11.1215 4.62868C11.6841 5.19129 12.0002 5.95435 12.0002 6.75ZM30.0002 15.75C30.0002 16.5456 29.6841 17.3087 29.1215 17.8713C28.5589 18.4339 27.7958 18.75 27.0002 18.75C26.2045 18.75 25.4414 18.4339 24.8788 17.8713C24.3162 17.3087 24.0002 16.5456 24.0002 15.75C24.0002 14.9544 24.3162 14.1913 24.8788 13.6287C25.4414 13.0661 26.2045 12.75 27.0002 12.75C27.7958 12.75 28.5589 13.0661 29.1215 13.6287C29.6841 14.1913 30.0002 14.9544 30.0002 15.75Z" stroke="white" stroke-width="2.7" stroke-linecap="round" stroke-linejoin="round"/>
</g>
</svg>
