<svg width="36" height="36" viewBox="0 0 36 36" fill="none" xmlns="http://www.w3.org/2000/svg">
<g opacity="0.6">
<path d="M2.98279 3H13.4455V6.75H22.4135V3H32.8762V13.5H29.1395V22.5H32.8762V33H22.4135V29.25H13.4455V33H2.98279V22.5H6.71947V13.5H2.98279V3ZM10.4561 10.5V6H5.97213V10.5H10.4561ZM9.70881 13.5V22.5H13.4455V26.25H22.4135V22.5H26.1502V13.5H22.4135V9.75H13.4455V13.5H9.70881ZM25.4029 25.5V30H29.8869V25.5H25.4029ZM10.4561 25.5H5.97213V30H10.4561V25.5ZM25.4029 6V10.5H29.8869V6H25.4029Z" fill="white"/>
</g>
</svg>
