<svg width="393" height="487" viewBox="0 0 393 487" fill="none" xmlns="http://www.w3.org/2000/svg">
<g clip-path="url(#clip0_23_956)">
<rect x="42.8058" y="231.879" width="283.267" height="74.721" rx="37.3605" transform="rotate(-13.1871 42.8058 231.879)" stroke="#E0E0E0" stroke-width="1.03547"/>
<path d="M94.5064 268.249L82.7098 260.902L90.0148 249.079L92.8165 250.824L87.216 259.888L96.2109 265.49L94.5064 268.249ZM107.241 265.265L104.439 263.52L110.04 254.456L101.045 248.854L102.749 246.095L114.546 253.442L107.241 265.265Z" fill="black"/>
<path d="M148.966 246.003C147.127 238.157 142.279 238.284 137.527 239.398L134.561 240.093L138.693 257.729L141.659 257.034C146.411 255.921 150.812 253.88 148.966 246.003ZM130.665 238.112L136.98 236.632C144.283 234.921 150.228 236.455 152.283 245.226C154.345 254.028 149.701 258.043 142.398 259.755L136.083 261.234L130.665 238.112ZM172.296 244.708L159.092 247.802C160.055 251.479 163.152 252.637 165.672 252.047C168.223 251.449 169.358 249.972 169.695 248.11L172.693 247.408C172.615 250.521 170.448 253.62 166.27 254.598C160.848 255.869 156.938 252.68 155.75 247.609C154.472 242.156 157.301 237.859 161.989 236.761C167.252 235.528 171.369 239.172 172.296 244.708ZM162.572 239.249C160.021 239.846 157.99 241.803 158.541 245.307L168.651 242.938C167.988 240.537 165.666 238.524 162.572 239.249ZM174.213 234.2L181.948 246.248L183.526 232.018L186.524 231.315L184.07 249.99L181.487 250.596L170.992 234.954L174.213 234.2ZM205.902 236.834L192.698 239.928C193.661 243.605 196.758 244.763 199.278 244.173C201.829 243.575 202.963 242.098 203.301 240.236L206.299 239.533C206.221 242.647 204.053 245.745 199.875 246.724C194.454 247.995 190.544 244.806 189.356 239.735C188.078 234.282 190.907 229.985 195.595 228.887C200.857 227.654 204.975 231.298 205.902 236.834ZM196.178 231.374C193.626 231.972 191.595 233.929 192.147 237.433L202.257 235.064C201.593 232.662 199.271 230.65 196.178 231.374ZM208.554 219.862L213.972 242.984L211.07 243.664L205.652 220.542L208.554 219.862ZM218.558 232.927C219.634 237.519 222.54 238.722 225.187 238.102C227.834 237.482 229.859 234.921 228.827 230.52C227.751 225.928 224.845 224.725 222.198 225.345C219.551 225.965 217.46 228.238 218.558 232.927ZM221.6 222.793C225.587 221.859 230.464 223.576 231.921 229.795C233.378 236.014 229.772 239.719 225.785 240.653C221.799 241.587 216.922 239.87 215.464 233.651C214.007 227.432 217.614 223.728 221.6 222.793ZM233.367 220.339L236.269 219.659L236.905 222.37C237.531 220.306 239.041 218.707 241.815 218.057C245.77 217.13 249.928 219.655 251.243 225.268C252.581 230.977 249.955 234.99 246 235.917C243.225 236.567 241.163 235.805 239.685 234.234L241.598 242.399L238.695 243.079L233.367 220.339ZM238.167 228.332C239.228 232.861 242.1 234.206 244.684 233.601C247.65 232.906 249.05 230.122 248.086 226.008C247.122 221.894 244.631 220.021 241.665 220.716C239.081 221.322 237.106 223.803 238.167 228.332ZM270.247 221.757L257.044 224.851C258.006 228.528 261.104 229.686 263.623 229.096C266.175 228.498 267.309 227.021 267.647 225.159L270.644 224.457C270.567 227.57 268.399 230.668 264.221 231.647C258.8 232.918 254.89 229.729 253.702 224.658C252.424 219.205 255.253 214.908 259.941 213.81C265.203 212.577 269.32 216.221 270.247 221.757ZM260.524 216.298C257.972 216.895 255.941 218.852 256.493 222.356L266.603 219.987C265.939 217.585 263.617 215.573 260.524 216.298ZM279.928 209.362L280.653 212.456C280.024 212.502 279.475 212.597 278.996 212.709C276.317 213.337 275.321 215.118 276.211 218.913L278.318 227.907L275.416 228.587L271.395 211.429L274.234 210.764L274.936 213.762C275.342 211.614 276.817 210.158 279.059 209.532C279.346 209.465 279.569 209.413 279.928 209.362ZM296.603 210.804L293.573 211.514C292.616 209.585 290.898 209.147 288.857 209.625C287.167 210.021 285.395 211.075 285.762 212.638C286.083 214.01 287.182 214.391 288.922 214.354L291.458 214.264C294.718 214.106 297.752 214.707 298.522 217.992C299.322 221.404 296.708 224.035 292.786 224.954C288.289 226.008 285.074 223.632 284.021 220.717L287.083 219.999C288.077 222.088 289.723 223.082 292.274 222.484C294.475 221.968 296.044 220.625 295.663 218.998C295.252 217.244 293.468 216.955 291.521 216.974L288.85 217.062C286.403 217.097 283.612 216.674 282.857 213.453C282.147 210.423 284.798 207.952 288.593 207.063C292.325 206.188 295.291 207.647 296.603 210.804Z" fill="black"/>
<rect x="137.724" y="272.648" width="258.037" height="74.721" rx="37.3605" transform="rotate(17.1853 137.724 272.648)" stroke="#E0E0E0" stroke-width="1.03547"/>
<g clip-path="url(#clip1_23_956)">
<path d="M162.274 302.273L173.143 305.634L171.938 309.53L181.255 312.411L182.46 308.516L193.329 311.877L189.956 322.785L186.074 321.585L183.182 330.935L187.064 332.135L183.69 343.043L172.821 339.682L174.026 335.786L164.709 332.905L163.504 336.8L152.635 333.439L156.009 322.531L159.891 323.731L162.782 314.381L158.9 313.181L162.274 302.273ZM167.628 312.465L169.074 307.79L164.415 306.35L162.97 311.025L167.628 312.465ZM165.888 315.342L162.996 324.692L166.878 325.892L165.673 329.788L174.99 332.669L176.195 328.774L180.076 329.974L182.968 320.624L179.086 319.424L180.291 315.528L170.974 312.647L169.77 316.542L165.888 315.342ZM178.336 332.851L176.89 337.526L181.549 338.966L182.995 334.291L178.336 332.851ZM162.809 328.048L158.15 326.608L156.704 331.283L161.363 332.723L162.809 328.048ZM184.601 312.593L183.156 317.268L187.814 318.708L189.26 314.033L184.601 312.593Z" fill="black"/>
</g>
<path d="M203.138 345.069L210.155 322.38L218.322 324.906C222.547 326.213 225.963 328.47 224.57 332.976C223.902 335.135 222.394 336.795 220.518 337.209C222.396 338.784 223.157 340.871 222.295 343.656C220.805 348.475 216.625 349.24 212.088 347.837L203.138 345.069ZM209.562 335.604L207.162 343.364L212.951 345.155C216.206 346.162 218.197 345.269 219 342.671C219.823 340.011 218.575 338.391 215.164 337.336L209.562 335.604ZM212.514 326.059L210.346 333.069L215.823 334.762C218.451 335.575 220.388 335.077 221.211 332.417C221.937 330.07 220.525 328.537 217.991 327.753L212.514 326.059ZM233.59 329.628L226.573 352.316L223.725 351.436L230.742 328.748L233.59 329.628ZM235.615 345.958C234.221 350.464 236.12 352.972 238.717 353.775C241.315 354.578 244.356 353.393 245.691 349.074C247.085 344.568 245.186 342.061 242.589 341.257C239.991 340.454 237.037 341.358 235.615 345.958ZM243.363 338.754C247.275 339.964 250.614 343.911 248.727 350.013C246.84 356.116 241.855 357.488 237.943 356.279C234.031 355.069 230.692 351.122 232.579 345.019C234.466 338.917 239.451 337.544 243.363 338.754ZM262.066 344.538C266.197 345.816 267.762 349.626 267.278 352.63L264.399 351.74C264.611 349.611 263.326 347.671 261.104 346.984C258.6 346.209 255.644 347.455 254.337 351.68C253.021 355.936 254.729 358.727 257.233 359.501C259.642 360.247 261.804 359.132 262.753 357.506L265.695 358.415C264.122 361.392 260.308 363.195 256.364 361.976C251.514 360.476 249.642 355.885 251.229 350.753C252.778 345.746 257.09 342.999 262.066 344.538ZM274.23 342.197L277.077 343.078L272.925 356.503L282.058 351.03L285.563 352.114L276.99 357.108L281.233 369.221L277.759 368.147L274.432 358.615L271.803 360.133L270.061 365.766L267.213 364.885L274.23 342.197ZM292.877 347.964L290.283 356.351C291.747 355.055 293.752 354.338 296.6 355.218C300.668 356.477 301.326 359.56 300.135 363.409L296.845 374.049L293.997 373.169L297.026 363.374C297.83 360.776 298.088 358.388 294.834 357.381C292.08 356.529 289.809 357.884 288.687 361.514L285.86 370.652L283.013 369.772L290.029 347.083L292.877 347.964ZM313.891 371.607L314.22 370.543C308.902 369.446 305.374 369.213 304.658 371.528C304.164 373.124 305.055 374.566 307.089 375.195C309.749 376.017 312.662 375.581 313.891 371.607ZM305.767 377.254C302.606 376.277 300.519 373.711 301.477 370.613C302.707 366.639 307.581 366.844 314.698 368.222L314.823 367.815C315.782 364.717 314.401 363.193 312.273 362.535C309.895 361.799 308.162 362.635 307.389 364.693L304.447 363.783C305.82 360.23 309.704 359.203 312.958 360.209C317.621 361.651 319.009 364.481 317.507 369.228L316.275 373.098C315.363 375.936 314.898 377.884 314.749 379.587L311.87 378.696C311.969 378.041 312.088 377.324 312.367 376.313C310.792 377.746 308.771 378.184 305.767 377.254ZM323.792 363.937L326.64 364.818L321.433 381.654L318.585 380.773L323.792 363.937ZM325.602 358.085L328.45 358.966L327.385 362.408L324.537 361.527L325.602 358.085ZM334.005 367.095L333.221 369.63C334.685 368.334 336.689 367.617 339.537 368.498C343.605 369.756 344.263 372.84 343.073 376.689L339.782 387.329L336.934 386.448L339.964 376.653C340.767 374.056 341.026 371.667 337.771 370.66C335.017 369.809 332.747 371.164 331.624 374.794L328.798 383.932L325.95 383.051L331.157 366.215L334.005 367.095Z" fill="black"/>
<rect x="71.9513" y="412" width="317.029" height="74.721" rx="37.3605" stroke="black" stroke-opacity="0.12" stroke-width="1.03547"/>
<path d="M110.664 456.673L105.789 461.451V447.736H110.664M118.789 453.683L116.238 451.506L113.914 453.651V441.236H118.789M126.914 450.986L122.039 455.861V434.736H126.914M131.481 450.677L128.539 447.736H136.664V455.861L133.756 452.952L122.039 464.571L116.401 459.663L110.258 465.611H105.789L116.303 455.308L122.039 460.151" fill="black"/>
<path d="M171.852 449.97C171.852 441.912 167.102 440.929 162.222 440.929H159.175V459.044H162.222C167.102 459.044 171.852 458.061 171.852 449.97ZM155.834 438.112H162.32C169.821 438.112 175.259 440.962 175.259 449.97C175.259 459.011 169.821 461.861 162.32 461.861H155.834V438.112ZM194.862 454.032H181.301C181.399 457.832 184.151 459.666 186.739 459.666C189.359 459.666 190.8 458.487 191.554 456.751H194.633C193.847 459.764 191.03 462.287 186.739 462.287C181.17 462.287 178.091 458.29 178.091 453.082C178.091 447.481 181.825 443.943 186.64 443.943C192.045 443.943 195.223 448.431 194.862 454.032ZM186.64 446.498C184.02 446.498 181.596 447.939 181.334 451.477H191.718C191.619 448.987 189.818 446.498 186.64 446.498ZM198.795 461.861V438.112H214.223V440.995H202.136V448.201H213.535V451.084H202.136V461.861H198.795ZM216.666 444.238H219.647V461.861H216.666V444.238ZM216.666 438.112H219.647V441.716H216.666V438.112ZM246.037 461.861H242.499L235.948 441.159V461.861H232.607V438.112H238.208L244.268 457.897L250.328 438.112H255.929V461.861H252.588V441.159L246.037 461.861ZM272.202 454.491V453.377C266.798 453.901 263.358 454.72 263.358 457.144C263.358 458.814 264.636 459.928 266.765 459.928C269.549 459.928 272.202 458.651 272.202 454.491ZM266.11 462.287C262.801 462.287 260.05 460.452 260.05 457.209C260.05 453.049 264.767 451.804 271.973 451.018V450.593C271.973 447.35 270.204 446.301 267.977 446.301C265.487 446.301 264.079 447.612 263.948 449.806H260.869C261.131 446.007 264.537 443.877 267.944 443.877C272.825 443.877 274.987 446.17 274.954 451.149L274.921 455.211C274.889 458.192 275.02 460.19 275.38 461.861H272.366C272.268 461.206 272.17 460.485 272.137 459.437C271.056 461.271 269.254 462.287 266.11 462.287ZM286.7 443.943C291.024 443.943 293.645 447.12 294.07 450.134H291.057C290.631 448.038 288.829 446.563 286.504 446.563C283.883 446.563 281.427 448.627 281.427 453.049C281.427 457.504 283.883 459.666 286.504 459.666C289.026 459.666 290.762 457.963 291.188 456.128H294.267C293.645 459.437 290.533 462.287 286.405 462.287C281.328 462.287 278.184 458.454 278.184 453.082C278.184 447.841 281.492 443.943 286.7 443.943ZM300.61 438.112V446.891C301.625 445.22 303.329 443.943 306.31 443.943C310.568 443.943 312.107 446.694 312.107 450.724V461.861H309.127V451.608C309.127 448.889 308.668 446.531 305.261 446.531C302.379 446.531 300.61 448.496 300.61 452.296V461.861H297.629V438.112H300.61ZM316.566 444.238H319.547V461.861H316.566V444.238ZM316.566 438.112H319.547V441.716H316.566V438.112ZM327.257 444.238V446.891C328.272 445.22 329.975 443.943 332.956 443.943C337.215 443.943 338.754 446.694 338.754 450.724V461.861H335.773V451.608C335.773 448.889 335.315 446.531 331.908 446.531C329.025 446.531 327.257 448.496 327.257 452.296V461.861H324.276V444.238H327.257ZM358.772 454.032H345.211C345.309 457.832 348.061 459.666 350.649 459.666C353.269 459.666 354.711 458.487 355.464 456.751H358.543C357.757 459.764 354.94 462.287 350.649 462.287C345.08 462.287 342.001 458.29 342.001 453.082C342.001 447.481 345.735 443.943 350.55 443.943C355.955 443.943 359.133 448.431 358.772 454.032ZM350.55 446.498C347.93 446.498 345.506 447.939 345.244 451.477H355.628C355.529 448.987 353.728 446.498 350.55 446.498Z" fill="black"/>
<rect x="144.518" y="99.5177" width="247.267" height="74.721" rx="37.3605" stroke="#E0E0E0" stroke-width="1.03547"/>
<path d="M176.748 120.47H209.447V153.285H176.748V120.47ZM180.018 123.752V150.004H206.177V123.752H180.018ZM202.907 130.315V135.237H199.637V130.315H202.907ZM194.732 133.596V138.519H191.463V133.596H194.732ZM186.558 136.878V146.722H183.288V136.878H186.558ZM202.907 138.519V146.722H199.637V138.519H202.907ZM194.732 141.8V146.722H191.463V141.8H194.732Z" fill="black"/>
<path d="M225.821 149.378L234.633 125.63H238.498L247.44 149.378H243.837L241.97 144.235H231.062L229.228 149.378H225.821ZM236.467 129.004L232.078 141.386H240.922L236.467 129.004ZM252.785 131.755V134.409C253.8 132.738 255.504 131.46 258.484 131.46C262.743 131.46 264.282 134.212 264.282 138.241V149.378H261.301V139.125C261.301 136.407 260.843 134.048 257.436 134.048C254.554 134.048 252.785 136.014 252.785 139.813V149.378H249.804V131.755H252.785ZM279.846 142.008V140.894C274.441 141.418 271.001 142.237 271.001 144.661C271.001 146.332 272.279 147.446 274.408 147.446C277.192 147.446 279.846 146.168 279.846 142.008ZM273.753 149.804C270.445 149.804 267.693 147.97 267.693 144.727C267.693 140.567 272.41 139.322 279.616 138.536V138.11C279.616 134.867 277.848 133.819 275.62 133.819C273.131 133.819 271.722 135.129 271.591 137.324H268.512C268.774 133.524 272.181 131.395 275.587 131.395C280.468 131.395 282.63 133.688 282.597 138.667L282.565 142.729C282.532 145.709 282.663 147.708 283.023 149.378H280.01C279.911 148.723 279.813 148.002 279.78 146.954C278.699 148.789 276.898 149.804 273.753 149.804ZM290.02 125.63V149.378H287.039V125.63H290.02ZM304.542 131.755H307.654L301.365 150.132C300.055 153.931 299.203 155.111 295.239 155.111H293.7V152.621H294.912C296.877 152.621 297.827 152.49 298.613 149.739L298.744 149.378L292.39 131.755H295.698L300.186 145.349L304.542 131.755ZM310.858 131.755V127.333H313.839V131.755H317.18V134.146H313.839V144.596C313.839 146.43 313.97 146.889 315.674 146.889H317.18V149.378H315.018C311.645 149.378 310.858 148.625 310.858 144.956V134.146H308.074V131.755H310.858ZM320.979 131.755H323.96V149.378H320.979V131.755ZM320.979 125.63H323.96V129.233H320.979V125.63ZM335.993 131.46C340.317 131.46 342.937 134.638 343.363 137.651H340.349C339.924 135.555 338.122 134.081 335.796 134.081C333.176 134.081 330.719 136.145 330.719 140.567C330.719 145.022 333.176 147.184 335.796 147.184C338.318 147.184 340.055 145.48 340.48 143.646H343.56C342.937 146.954 339.825 149.804 335.698 149.804C330.621 149.804 327.476 145.972 327.476 140.599C327.476 135.358 330.785 131.46 335.993 131.46ZM360.282 136.898H357.171C356.679 134.802 355.107 133.983 353.011 133.983C351.274 133.983 349.309 134.605 349.309 136.21C349.309 137.619 350.292 138.241 351.995 138.601L354.485 139.093C357.695 139.682 360.512 140.96 360.512 144.334C360.512 147.839 357.367 149.804 353.338 149.804C348.719 149.804 346.132 146.758 345.771 143.679H348.916C349.407 145.939 350.783 147.282 353.404 147.282C355.664 147.282 357.498 146.332 357.498 144.661C357.498 142.86 355.828 142.172 353.928 141.746L351.307 141.222C348.916 140.698 346.295 139.65 346.295 136.341C346.295 133.229 349.44 131.428 353.338 131.428C357.171 131.428 359.726 133.524 360.282 136.898Z" fill="black"/>
<rect x="5.62893" y="-3.42336" width="266.042" height="74.721" rx="37.3605" transform="rotate(6.95867 5.62893 -3.42336)" stroke="#E0E0E0" stroke-width="1.03547"/>
<g clip-path="url(#clip2_23_956)">
<path d="M42.2241 41.6937L32.2205 40.4728C31.9087 40.436 31.5949 40.524 31.3475 40.7175C31.1002 40.911 30.9393 41.1944 30.9 41.506L29.6785 51.5144C29.599 52.1655 30.063 52.7557 30.7117 52.8349L40.7201 54.0564C41.3712 54.1359 41.9614 53.6719 42.0406 53.0232L43.2621 43.0148C43.2989 42.703 43.2109 42.3892 43.0174 42.1418C42.8239 41.8945 42.5405 41.7336 42.2289 41.6943L42.2241 41.6937ZM60.526 43.9275L50.5177 42.706C50.2058 42.6692 49.892 42.7572 49.6447 42.9507C49.3973 43.1442 49.2365 43.4277 49.1972 43.7392L47.9756 53.7476C47.8962 54.3987 48.3577 54.9886 49.0089 55.0681L59.0172 56.2896C59.6684 56.3691 60.2586 55.9051 60.3377 55.2564L61.5593 45.2481C61.5961 44.9362 61.5081 44.6224 61.3146 44.375C61.121 44.1277 60.8376 43.9669 60.526 43.9275ZM44.4576 23.3942L34.4541 22.1732C34.1422 22.1364 33.8284 22.2244 33.581 22.4179C33.3337 22.6114 33.1728 22.8949 33.1335 23.2065L31.912 33.2148C31.8325 33.8659 32.2965 34.4561 32.9452 34.5353L42.9536 35.7568C43.6047 35.8363 44.1949 35.3723 44.2741 34.7236L45.4959 24.7129C45.5327 24.401 45.4447 24.0872 45.2512 23.8398C45.0577 23.5925 44.7743 23.4317 44.4627 23.3923L44.4576 23.3942ZM50.5037 31.3304C49.7931 31.1164 49.9199 30.077 50.6614 30.0378C51.9723 29.9712 53.2337 29.5158 54.2847 28.7295C55.3358 27.9432 56.1289 26.8618 56.5629 25.6231L56.6307 25.4282C56.8749 24.7311 57.8959 24.8483 57.9725 25.5846L57.997 25.825C58.1315 27.1276 58.6479 28.3615 59.4813 29.3716C60.3147 30.3816 61.428 31.123 62.6814 31.5024C63.3944 31.7167 63.2666 32.7633 62.5227 32.8023C61.2149 32.8691 59.956 33.3209 58.9041 34.1009C57.8521 34.8808 57.0542 35.9542 56.6103 37.1863L56.529 37.4113C56.2776 38.1076 55.2605 37.9785 55.1887 37.2428L55.1697 37.0374C55.0469 35.7302 54.5374 34.4893 53.7064 33.4728C52.8753 32.4564 51.7604 31.7105 50.5037 31.3304Z" stroke="black" stroke-width="2.42954" stroke-linecap="round" stroke-linejoin="round"/>
</g>
<path d="M75.107 55.2871L86.7308 32.7812L90.5675 33.2494L96.567 57.9063L92.9903 57.4698L91.76 52.1387L80.9325 50.8172L78.4886 55.6998L75.107 55.2871ZM88.1428 36.3525L82.2857 48.1114L91.0648 49.1829L88.1428 36.3525ZM105.562 35.0796L102.685 58.653L99.3684 58.2482L102.246 34.6748L105.562 35.0796ZM121.388 37.0111L118.511 60.5846L115.552 60.2235L118.429 36.65L121.388 37.0111ZM139.597 55.2714L126.136 53.6284C125.773 57.4121 128.282 59.5663 130.851 59.8798C133.452 60.1973 135.026 59.2014 135.984 57.5693L139.04 57.9424C137.895 60.8385 134.793 63.0009 130.534 62.481C125.006 61.8064 122.434 57.4665 123.065 52.2966C123.743 46.7365 127.879 43.6773 132.658 44.2606C138.023 44.9155 140.634 49.755 139.597 55.2714ZM132.349 46.7968C129.748 46.4793 127.167 47.6163 126.478 51.0962L136.786 52.3543C136.99 49.8712 135.503 47.1818 132.349 46.7968ZM153.854 57.4735L153.989 56.368C148.561 56.2334 145.047 56.6296 144.754 59.0357C144.551 60.694 145.684 61.9542 147.798 62.2122C150.562 62.5495 153.35 61.6029 153.854 57.4735ZM146.862 64.4739C143.578 64.0731 141.069 61.9189 141.462 58.6999C141.966 54.5705 146.799 53.9064 154.047 53.9991L154.099 53.5764C154.492 50.3574 152.863 49.1026 150.652 48.8327C148.181 48.5311 146.624 49.6611 146.228 51.8237L143.171 51.4507C143.892 47.7107 147.531 46.0099 150.913 46.4227C155.758 47.014 157.626 49.552 156.99 54.4903L156.466 58.5182C156.072 61.4731 155.96 63.4724 156.115 65.1743L153.124 64.8092C153.106 64.147 153.095 63.4198 153.19 62.3753C151.895 64.0652 149.983 64.8549 146.862 64.4739ZM170.958 49.1662L170.573 52.3202C169.968 52.1473 169.419 52.0473 168.931 51.9878C166.2 51.6544 164.652 52.9834 164.179 56.8527L163.06 66.022L160.101 65.6608L162.236 48.1677L165.13 48.5209L164.757 51.5773C165.877 49.7011 167.764 48.8424 170.084 49.0266C170.377 49.0623 170.605 49.0901 170.958 49.1662ZM176.753 49.9395L176.432 52.5733C177.642 51.038 179.488 49.9763 182.447 50.3374C186.674 50.8533 187.869 53.7711 187.38 57.7705L186.031 68.8256L183.072 68.4645L184.314 58.2873C184.644 55.5885 184.474 53.1919 181.093 52.7791C178.231 52.4299 176.237 54.1665 175.777 57.9383L174.618 67.4327L171.659 67.0715L173.794 49.5784L176.753 49.9395ZM192.592 51.8727L195.551 52.2339L193.416 69.727L190.457 69.3659L192.592 51.8727ZM193.334 45.7924L196.293 46.1535L195.857 49.7302L192.898 49.3691L193.334 45.7924ZM203.204 53.1679L202.882 55.8016C204.093 54.2663 205.938 53.2046 208.897 53.5657C213.124 54.0817 214.319 56.9995 213.831 60.9988L212.481 72.054L209.523 71.6928L210.765 61.5156C211.094 58.8168 210.925 56.4202 207.543 56.0075C204.682 55.6582 202.688 57.3948 202.227 61.1666L201.069 70.661L198.11 70.2999L200.245 52.8067L203.204 53.1679ZM230.476 59.3014L230.813 56.5377L233.772 56.8988L231.923 72.0508C231.49 75.595 230.657 77.0113 229.514 77.9938C228.068 79.3022 225.786 79.8817 223.185 79.5642C219.185 79.0761 216.774 76.9338 216.654 73.3222L219.808 73.7071C219.975 75.3115 220.836 76.6376 223.535 76.967C225.128 77.1615 226.35 76.8816 227.27 76.1029C227.975 75.463 228.587 74.7786 228.88 72.3725L229.083 70.7143C227.784 72.4367 225.982 73.4048 223.154 73.0595C219.284 72.5873 216.121 69.0333 216.808 63.4081C217.49 57.8155 221.419 55.0941 225.289 55.5664C228.118 55.9117 229.629 57.3171 230.476 59.3014ZM229.911 65.0075C230.451 60.5854 228.328 58.5113 225.727 58.1939C222.833 57.8407 220.515 59.8017 220.027 63.801C219.535 67.8329 221.313 70.2939 224.207 70.6471C226.808 70.9646 229.368 69.462 229.911 65.0075Z" fill="black"/>
</g>
<defs>
<clipPath id="clip0_23_956">
<rect width="393" height="487" fill="white"/>
</clipPath>
<clipPath id="clip1_23_956">
<rect width="39.0079" height="39.147" fill="white" transform="translate(160.139 298.198) rotate(17.1853)"/>
</clipPath>
<clipPath id="clip2_23_956">
<rect width="34.0136" height="34.0136" fill="white" transform="translate(31.9128 20.2894) rotate(6.95867)"/>
</clipPath>
</defs>
</svg>
