<svg width="1440" height="48" viewBox="0 0 1440 48" fill="none" xmlns="http://www.w3.org/2000/svg">
<line y1="-4" x2="1440" y2="-4" transform="matrix(-1 8.74228e-08 8.74228e-08 1 1440 8)" stroke="black" stroke-width="8"/>
<line y1="-3" x2="1440" y2="-3" transform="matrix(-1 8.74228e-08 8.74228e-08 1 1440 16)" stroke="black" stroke-width="6"/>
<line y1="-2.5" x2="1440" y2="-2.5" transform="matrix(-1 8.74228e-08 8.74228e-08 1 1440 24)" stroke="black" stroke-width="5"/>
<line y1="-1.5" x2="1440" y2="-1.5" transform="matrix(-1 8.74228e-08 8.74228e-08 1 1440 32)" stroke="black" stroke-width="3"/>
<line y1="-1" x2="1440" y2="-1" transform="matrix(-1 8.74228e-08 8.74228e-08 1 1440 40)" stroke="black" stroke-width="2"/>
<line y1="-0.5" x2="1440" y2="-0.5" transform="matrix(-1 8.74228e-08 8.74228e-08 1 1440 48)" stroke="black"/>
</svg>
