<svg width="104" height="25" viewBox="0 0 104 25" fill="none" xmlns="http://www.w3.org/2000/svg">
<g clip-path="url(#clip0_41_2352)">
<path fill-rule="evenodd" clip-rule="evenodd" d="M12.9033 16.4958C13.8976 15.9209 14.7662 15.1519 15.4576 14.2347C15.2348 13.8882 15.0762 13.5043 14.9896 13.1015L14.957 12.9507C14.8636 12.52 14.6437 12.127 14.3254 11.8222C14.0071 11.5173 13.605 11.3145 13.1707 11.2398C9.61871 10.6227 9.61871 5.5244 13.1707 4.90554C13.5902 4.83333 13.98 4.64158 14.2932 4.3533C14.6064 4.06503 14.8297 3.69249 14.9364 3.2804C14.1012 2.37022 13.079 1.65135 11.9401 1.17302C10.8011 0.694691 9.57219 0.468209 8.33752 0.509089C7.10286 0.54997 5.89162 0.857246 4.78679 1.40987C3.68195 1.96249 2.70961 2.7474 1.93639 3.71083C1.16318 4.67426 0.607345 5.79344 0.306976 6.99171C0.0066078 8.18998 -0.0312 9.43901 0.196143 10.6532C0.423486 11.8675 0.910608 13.0182 1.62414 14.0267C2.33767 15.0351 3.26075 15.8774 4.33014 16.4958V18.4998C4.33014 18.9545 4.51075 19.3905 4.83224 19.712C5.15373 20.0335 5.58977 20.2141 6.04442 20.2141H11.1873C11.6419 20.2141 12.078 20.0335 12.3995 19.712C12.721 19.3905 12.9016 18.9545 12.9016 18.4998L12.9033 16.4958ZM4.33185 23.2141C4.33185 22.8731 4.46731 22.5461 4.70843 22.305C4.94955 22.0639 5.27657 21.9284 5.61757 21.9284H11.6176C11.9586 21.9284 12.2856 22.0639 12.5267 22.305C12.7678 22.5461 12.9033 22.8731 12.9033 23.2141C12.9033 23.5551 12.7678 23.8821 12.5267 24.1232C12.2856 24.3644 11.9586 24.4998 11.6176 24.4998H5.61757C5.27657 24.4998 4.94955 24.3644 4.70843 24.1232C4.46731 23.8821 4.33185 23.5551 4.33185 23.2141ZM16.8119 3.44325C17.1256 2.01011 19.1656 2.00154 19.4913 3.43125L19.5067 3.49983L19.5376 3.63354C19.7226 4.4166 20.1332 5.12822 20.7185 5.68033C21.3038 6.23244 22.0382 6.6008 22.8307 6.73983C24.3256 7.0004 24.3256 9.14668 22.8307 9.40725C22.0336 9.5469 21.2954 9.91852 20.7084 10.4756C20.1214 11.0327 19.7118 11.7505 19.5307 12.5393L19.4913 12.7141C19.1656 14.1455 17.1239 14.137 16.8084 12.7021L16.7759 12.553C16.603 11.7612 16.1983 11.0388 15.6133 10.478C15.0284 9.91712 14.2896 9.54318 13.4913 9.40383C11.9981 9.14497 11.9981 7.00211 13.4913 6.74154C14.2868 6.60319 15.0234 6.2319 15.6078 5.67466C16.1922 5.11743 16.5981 4.39932 16.7741 3.61125L16.7999 3.49983L16.8119 3.44325Z" fill="white"/>
</g>
<path d="M35.3202 21.826C31.3077 21.826 29.0758 19.2932 29.0758 15.356H32.2356C32.2356 17.8888 33.339 19.2179 35.3202 19.2179C37.2511 19.2179 38.3545 17.8888 38.3545 15.356V3.31877H41.5394V15.356C41.5394 19.2932 39.3075 21.826 35.3202 21.826ZM48.1362 3.31877V18.8167H57.2895V21.5H44.9513V3.31877H48.1362ZM58.8801 21.5V3.31877H65.7263C69.0365 3.31877 72.2715 4.22156 72.2715 7.95812C72.2715 9.66339 71.3186 11.168 70.2403 11.8451C71.7449 12.5222 72.9737 13.7009 72.9737 16.1083C72.9737 20.0204 69.8892 21.5 66.1777 21.5H58.8801ZM62.065 13.3498V18.9421H66.3031C68.5851 18.9421 69.6885 17.9139 69.6885 16.1083C69.6885 14.2275 68.5601 13.3498 66.1275 13.3498H62.065ZM62.065 5.87668V10.9173H66.0272C67.908 10.9173 69.0365 10.1148 69.0365 8.30921C69.0365 6.70424 67.8328 5.87668 66.0272 5.87668H62.065ZM77.75 21.5H74.3395V18.0895H77.75V21.5ZM79.8622 21.5L86.6331 3.31877H89.9935L96.8146 21.5H93.3288L91.8994 17.4625H84.5266L83.1223 21.5H79.8622ZM88.1879 7.00517L85.4545 14.8043H90.9465L88.1879 7.00517ZM101.574 3.31877V21.5H98.389V3.31877H101.574Z" fill="white"/>
<defs>
<clipPath id="clip0_41_2352">
<rect width="24" height="24" fill="white" transform="translate(0 0.5)"/>
</clipPath>
</defs>
</svg>
