<svg width="104" height="24" viewBox="0 0 104 24" fill="none" xmlns="http://www.w3.org/2000/svg">
<g clip-path="url(#clip0_21_973)">
<path fill-rule="evenodd" clip-rule="evenodd" d="M12.9033 15.9959C13.8976 15.421 14.7662 14.652 15.4576 13.7348C15.2348 13.3883 15.0762 13.0044 14.9896 12.6017L14.957 12.4508C14.8636 12.0201 14.6437 11.6271 14.3254 11.3223C14.0071 11.0175 13.605 10.8147 13.1707 10.7399C9.61871 10.1228 9.61871 5.02452 13.1707 4.40566C13.5902 4.33345 13.98 4.1417 14.2932 3.85343C14.6064 3.56515 14.8297 3.19261 14.9364 2.78052C14.1012 1.87035 13.079 1.15147 11.9401 0.673143C10.8011 0.194813 9.57219 -0.0316686 8.33752 0.00921154C7.10286 0.0500917 5.89162 0.357368 4.78679 0.909991C3.68195 1.46261 2.70961 2.24752 1.93639 3.21095C1.16318 4.17438 0.607345 5.29356 0.306976 6.49183C0.0066078 7.6901 -0.0312 8.93913 0.196143 10.1534C0.423486 11.3676 0.910608 12.5184 1.62414 13.5268C2.33767 14.5352 3.26075 15.3775 4.33014 15.9959V17.9999C4.33014 18.4546 4.51075 18.8906 4.83224 19.2121C5.15373 19.5336 5.58977 19.7142 6.04442 19.7142H11.1873C11.6419 19.7142 12.078 19.5336 12.3995 19.2121C12.721 18.8906 12.9016 18.4546 12.9016 17.9999L12.9033 15.9959ZM4.33185 22.7142C4.33185 22.3732 4.46731 22.0462 4.70843 21.8051C4.94955 21.564 5.27657 21.4285 5.61757 21.4285H11.6176C11.9586 21.4285 12.2856 21.564 12.5267 21.8051C12.7678 22.0462 12.9033 22.3732 12.9033 22.7142C12.9033 23.0552 12.7678 23.3823 12.5267 23.6234C12.2856 23.8645 11.9586 23.9999 11.6176 23.9999H5.61757C5.27657 23.9999 4.94955 23.8645 4.70843 23.6234C4.46731 23.3823 4.33185 23.0552 4.33185 22.7142ZM16.8119 2.94338C17.1256 1.51023 19.1656 1.50166 19.4913 2.93138L19.5067 2.99995L19.5376 3.13366C19.7226 3.91672 20.1332 4.62834 20.7185 5.18045C21.3038 5.73256 22.0382 6.10092 22.8307 6.23995C24.3256 6.50052 24.3256 8.6468 22.8307 8.90738C22.0336 9.04702 21.2954 9.41864 20.7084 9.97573C20.1214 10.5328 19.7118 11.2506 19.5307 12.0394L19.4913 12.2142C19.1656 13.6457 17.1239 13.6371 16.8084 12.2022L16.7759 12.0531C16.603 11.2613 16.1983 10.539 15.6133 9.9781C15.0284 9.41724 14.2896 9.0433 13.4913 8.90395C11.9981 8.64509 11.9981 6.50223 13.4913 6.24166C14.2868 6.10332 15.0234 5.73202 15.6078 5.17478C16.1922 4.61755 16.5981 3.89944 16.7741 3.11138L16.7999 2.99995L16.8119 2.94338Z" fill="black"/>
</g>
<path d="M35.3202 21.326C31.3077 21.326 29.0758 18.7932 29.0758 14.856H32.2356C32.2356 17.3888 33.339 18.7179 35.3202 18.7179C37.2511 18.7179 38.3545 17.3888 38.3545 14.856V2.81877H41.5394V14.856C41.5394 18.7932 39.3075 21.326 35.3202 21.326ZM48.1362 2.81877V18.3167H57.2895V21H44.9513V2.81877H48.1362ZM58.8801 21V2.81877H65.7263C69.0365 2.81877 72.2715 3.72156 72.2715 7.45812C72.2715 9.16339 71.3186 10.668 70.2403 11.3451C71.7449 12.0222 72.9737 13.2009 72.9737 15.6083C72.9737 19.5204 69.8892 21 66.1777 21H58.8801ZM62.065 12.8498V18.4421H66.3031C68.5851 18.4421 69.6885 17.4139 69.6885 15.6083C69.6885 13.7275 68.5601 12.8498 66.1275 12.8498H62.065ZM62.065 5.37668V10.4173H66.0272C67.908 10.4173 69.0365 9.61479 69.0365 7.80921C69.0365 6.20424 67.8328 5.37668 66.0272 5.37668H62.065ZM77.75 21H74.3395V17.5895H77.75V21ZM79.8622 21L86.6331 2.81877H89.9935L96.8146 21H93.3288L91.8994 16.9625H84.5266L83.1223 21H79.8622ZM88.1879 6.50517L85.4545 14.3043H90.9465L88.1879 6.50517ZM101.574 2.81877V21H98.389V2.81877H101.574Z" fill="black"/>
<defs>
<clipPath id="clip0_21_973">
<rect width="24" height="24" fill="white"/>
</clipPath>
</defs>
</svg>
