<svg width="18" height="19" viewBox="0 0 18 19" fill="none" xmlns="http://www.w3.org/2000/svg">
<path d="M4.76666 15.0159L4.95416 16.6809L6.16916 15.5259L8.24666 9.82591C7.73666 9.69841 7.28666 9.44341 6.91916 9.09091L4.76666 15.0159ZM11.0742 9.09091C10.7067 9.44341 10.2492 9.69841 9.74666 9.82591L11.8242 15.5259L13.0392 16.6809L13.2342 15.0159L11.0742 9.09091ZM11.2467 6.93091C11.2467 5.95591 10.6167 5.13091 9.74666 4.81591V3.18091H8.24666V4.81591C7.37666 5.13091 6.74666 5.95591 6.74666 6.93091C6.74666 8.17591 7.75166 9.18091 8.99666 9.18091C10.2417 9.18091 11.2467 8.17591 11.2467 6.93091ZM8.99666 7.68091C8.58416 7.68091 8.24666 7.34341 8.24666 6.93091C8.24666 6.51841 8.58416 6.18091 8.99666 6.18091C9.40916 6.18091 9.74666 6.51841 9.74666 6.93091C9.74666 7.34341 9.40916 7.68091 8.99666 7.68091Z" fill="black"/>
</svg>
