<svg width="18" height="19" viewBox="0 0 18 19" fill="none" xmlns="http://www.w3.org/2000/svg">
<g clip-path="url(#clip0_49_3095)">
<path d="M14.9966 5.75L15.7016 4.205L17.2466 3.5L15.7016 2.795L14.9966 1.25L14.2916 2.795L12.7466 3.5L14.2916 4.205L14.9966 5.75ZM6.37164 5.75L7.07664 4.205L8.62164 3.5L7.07664 2.795L6.37164 1.25L5.66665 2.795L4.12164 3.5L5.66665 4.205L6.37164 5.75ZM14.9966 9.875L14.2916 11.42L12.7466 12.125L14.2916 12.83L14.9966 14.375L15.7016 12.83L17.2466 12.125L15.7016 11.42L14.9966 9.875ZM13.2791 7.34L11.1566 5.2175C11.0066 5.075 10.8191 5 10.6241 5C10.4291 5 10.2416 5.075 10.0916 5.2175L1.71415 13.595C1.64462 13.6644 1.58946 13.7468 1.55182 13.8375C1.51418 13.9283 1.49481 14.0255 1.49481 14.1238C1.49481 14.222 1.51418 14.3192 1.55182 14.41C1.58946 14.5007 1.64462 14.5831 1.71415 14.6525L3.83664 16.775C3.98664 16.925 4.17414 17 4.36914 17C4.56415 17 4.75165 16.925 4.90165 16.7825L13.2791 8.405C13.5716 8.1125 13.5716 7.6325 13.2791 7.34ZM10.6241 6.815L11.6816 7.8725L10.8041 8.75L9.74664 7.6925L10.6241 6.815ZM4.36914 15.1925L3.31165 14.135L8.68915 8.75L9.74664 9.8075L4.36914 15.1925Z" fill="black"/>
</g>
<defs>
<clipPath id="clip0_49_3095">
<rect width="18" height="18" fill="white" transform="translate(-0.00335693 0.5)"/>
</clipPath>
</defs>
</svg>
