<svg width="19" height="19" viewBox="0 0 19 19" fill="none" xmlns="http://www.w3.org/2000/svg">
<path d="M2.48132 2H7.71267V3.875H12.1967V2L17.428 2V7.25H15.5597V11.75H17.428V17H12.1967V15.125H7.71267V17H2.48132L2.48132 11.75H4.34966V7.25H2.48132V2ZM6.218 5.75V3.5H3.97599V5.75H6.218ZM5.84433 7.25V11.75H7.71267V13.625H12.1967V11.75H14.065V7.25H12.1967V5.375H7.71267V7.25H5.84433ZM13.6914 13.25V15.5H15.9334V13.25H13.6914ZM6.218 13.25H3.97599V15.5H6.218V13.25ZM13.6914 3.5V5.75H15.9334V3.5H13.6914Z" fill="black"/>
</svg>
