<svg width="19" height="19" viewBox="0 0 19 19" fill="none" xmlns="http://www.w3.org/2000/svg">
<g clip-path="url(#clip0_49_3107)">
<path d="M6.23987 11V8.6825C5.69987 8.435 5.19737 8.135 4.73987 7.7825V11H6.23987ZM4.73987 14H3.23987V12.5H1.73987V11H3.23987V5.75H4.73987V6.8225C6.08987 8 7.94237 8.75 9.98987 8.75C12.0374 8.75 13.8899 8 15.2399 6.8225V5.75H16.7399V11H18.2399V12.5H16.7399V14H15.2399V12.5H4.73987V14ZM13.7399 8.6825V11H15.2399V7.7825C14.7824 8.135 14.2799 8.435 13.7399 8.6825ZM12.9899 11V8.99C12.5099 9.1625 12.0074 9.29 11.4899 9.38V11H12.9899ZM10.7399 11V9.47L9.98987 9.5L9.23987 9.47V11H10.7399ZM8.48987 11V9.38C7.97237 9.29 7.46987 9.1625 6.98987 8.99V11H8.48987Z" fill="black"/>
</g>
<defs>
<clipPath id="clip0_49_3107">
<rect width="18" height="18" fill="white" transform="translate(0.989868 0.5)"/>
</clipPath>
</defs>
</svg>
