<svg width="18" height="19" viewBox="0 0 18 19" fill="none" xmlns="http://www.w3.org/2000/svg">
<path d="M7.22664 10.9809C6.46914 10.3059 5.50164 9.95341 4.49664 9.93091V12.1809L1.49664 9.18091L4.49664 6.18091V8.43091C5.74914 8.43091 6.97164 8.85841 7.96914 9.62341C7.66409 10.042 7.41452 10.4983 7.22664 10.9809ZM13.4966 12.1809V9.93091C13.1216 9.93091 10.1216 10.0509 9.78414 13.0809C10.9541 13.4934 11.5691 14.7834 11.1566 15.9534C10.957 16.5158 10.5425 16.976 10.004 17.2333C9.46559 17.4906 8.8471 17.5239 8.28414 17.3259C7.12164 16.9059 6.49914 15.6234 6.91164 14.4534C7.12164 13.8084 7.64664 13.3059 8.28414 13.0809C8.38941 11.7847 8.98948 10.5787 9.95995 9.71291C10.9304 8.84717 12.1968 8.38811 13.4966 8.43091V6.18091L16.4966 9.18091L13.4966 12.1809ZM9.74664 15.1809C9.74664 14.982 9.66763 14.7912 9.52697 14.6506C9.38632 14.5099 9.19556 14.4309 8.99664 14.4309C8.79773 14.4309 8.60697 14.5099 8.46631 14.6506C8.32566 14.7912 8.24664 14.982 8.24664 15.1809C8.24664 15.3798 8.32566 15.5706 8.46631 15.7112C8.60697 15.8519 8.79773 15.9309 8.99664 15.9309C9.19556 15.9309 9.38632 15.8519 9.52697 15.7112C9.66763 15.5706 9.74664 15.3798 9.74664 15.1809ZM8.24664 9.27091C8.68164 8.77591 9.18414 8.34841 9.74664 8.00341V4.68091H11.9966L8.99664 1.68091L5.99664 4.68091H8.24664V9.27091Z" fill="black"/>
</svg>
