<svg width="19" height="19" viewBox="0 0 19 19" fill="none" xmlns="http://www.w3.org/2000/svg">
<g clip-path="url(#clip0_49_3092)">
<path d="M16.7399 6.5C15.6524 6.5 15.0449 7.58 15.2924 8.3825L12.6299 11.0525C12.4049 10.985 12.0749 10.985 11.8499 11.0525L9.93737 9.14C10.1924 8.3375 9.58487 7.25 8.48987 7.25C7.40237 7.25 6.78737 8.33 7.04237 9.14L3.62237 12.5525C2.81987 12.305 1.73987 12.9125 1.73987 14C1.73987 14.825 2.41487 15.5 3.23987 15.5C4.32737 15.5 4.93487 14.42 4.68737 13.6175L8.09987 10.1975C8.32487 10.265 8.65487 10.265 8.87987 10.1975L10.7924 12.11C10.5374 12.9125 11.1449 14 12.2399 14C13.3274 14 13.9424 12.92 13.6874 12.11L16.3574 9.4475C17.1599 9.695 18.2399 9.0875 18.2399 8C18.2399 7.175 17.5649 6.5 16.7399 6.5Z" fill="black"/>
<path d="M12.2399 7.25L12.9449 5.6975L14.4899 5L12.9449 4.3025L12.2399 2.75L11.5499 4.3025L9.98987 5L11.5499 5.6975L12.2399 7.25ZM3.61487 8.75L3.98987 7.25L5.48987 6.875L3.98987 6.5L3.61487 5L3.23987 6.5L1.73987 6.875L3.23987 7.25L3.61487 8.75Z" fill="black"/>
</g>
<defs>
<clipPath id="clip0_49_3092">
<rect width="18" height="18" fill="white" transform="translate(0.989868 0.5)"/>
</clipPath>
</defs>
</svg>
