<svg width="18" height="19" viewBox="0 0 18 19" fill="none" xmlns="http://www.w3.org/2000/svg">
<path d="M7.19664 12.4153L8.24664 11.3278L6.63414 9.71533L8.24664 8.10283L7.19664 7.01533L4.49664 9.71533L7.19664 12.4153ZM10.7966 12.4153L13.4966 9.71533L10.7966 7.01533L9.74664 8.10283L11.3591 9.71533L9.74664 11.3278L10.7966 12.4153ZM3.74664 16.4653C3.33414 16.4653 2.98114 16.3186 2.68764 16.0251C2.39414 15.7316 2.24714 15.3783 2.24664 14.9653V4.46533C2.24664 4.05283 2.39364 3.69983 2.68764 3.40633C2.98164 3.11283 3.33464 2.96583 3.74664 2.96533H6.89664C7.05914 2.51533 7.33114 2.15283 7.71264 1.87783C8.09414 1.60283 8.52214 1.46533 8.99664 1.46533C9.47114 1.46533 9.89939 1.60283 10.2814 1.87783C10.6634 2.15283 10.9351 2.51533 11.0966 2.96533H14.2466C14.6591 2.96533 15.0124 3.11233 15.3064 3.40633C15.6004 3.70033 15.7471 4.05333 15.7466 4.46533V14.9653C15.7466 15.3778 15.5999 15.7311 15.3064 16.0251C15.0129 16.3191 14.6596 16.4658 14.2466 16.4653H3.74664ZM3.74664 14.9653H14.2466V4.46533H3.74664V14.9653ZM8.99664 3.90283C9.15914 3.90283 9.29364 3.84958 9.40014 3.74308C9.50664 3.63658 9.55964 3.50233 9.55914 3.34033C9.55864 3.17833 9.50539 3.04408 9.39939 2.93758C9.29339 2.83108 9.15914 2.77783 8.99664 2.77783C8.83414 2.77783 8.69989 2.83108 8.59389 2.93758C8.48789 3.04408 8.43464 3.17833 8.43414 3.34033C8.43364 3.50233 8.48689 3.63683 8.59389 3.74383C8.70089 3.85083 8.83514 3.90383 8.99664 3.90283Z" fill="black"/>
</svg>
