<svg width="100" height="100" viewBox="0 0 100 100" fill="none" xmlns="http://www.w3.org/2000/svg">
<rect width="100" height="100" rx="24" fill="white"/>
<path fill-rule="evenodd" clip-rule="evenodd" d="M53.0323 58.9909C55.2695 57.6972 57.2239 55.9671 58.7794 53.9033C58.2781 53.1236 57.9214 52.2599 57.7264 51.3537L57.6531 51.0143C57.443 50.0452 56.9482 49.161 56.2321 48.4751C55.5159 47.7892 54.6112 47.333 53.634 47.1649C45.642 45.7763 45.642 34.3051 53.634 32.9127C54.5779 32.7502 55.4548 32.3188 56.1595 31.6701C56.8643 31.0215 57.3668 30.1833 57.6069 29.2561C55.7275 27.2082 53.4277 25.5907 50.865 24.5145C48.3023 23.4382 45.5373 22.9287 42.7593 23.0206C39.9813 23.1126 37.256 23.804 34.7701 25.0474C32.2842 26.2908 30.0964 28.0569 28.3567 30.2246C26.617 32.3923 25.3663 34.9105 24.6905 37.6066C24.0147 40.3027 23.9296 43.113 24.4411 45.8451C24.9526 48.5771 26.0487 51.1663 27.6541 53.4353C29.2596 55.7043 31.3365 57.5994 33.7426 58.9909V63.4999C33.7426 64.5229 34.149 65.504 34.8724 66.2273C35.5957 66.9507 36.5768 67.3571 37.5998 67.3571H49.1713C50.1942 67.3571 51.1753 66.9507 51.8987 66.2273C52.622 65.504 53.0284 64.5229 53.0284 63.4999L53.0323 58.9909ZM33.7465 74.1071C33.7465 73.3398 34.0513 72.604 34.5938 72.0615C35.1363 71.519 35.8721 71.2142 36.6394 71.2142H50.1394C50.9066 71.2142 51.6425 71.519 52.185 72.0615C52.7275 72.604 53.0323 73.3398 53.0323 74.1071C53.0323 74.8743 52.7275 75.6101 52.185 76.1526C51.6425 76.6952 50.9066 76.9999 50.1394 76.9999H36.6394C35.8721 76.9999 35.1363 76.6952 34.5938 76.1526C34.0513 75.6101 33.7465 74.8743 33.7465 74.1071ZM61.8266 29.6225C62.5324 26.3979 67.1224 26.3787 67.8553 29.5955L67.89 29.7498L67.9595 30.0507C68.3758 31.8126 69.2996 33.4137 70.6166 34.656C71.9335 35.8982 73.5859 36.727 75.369 37.0398C78.7325 37.6261 78.7325 42.4553 75.369 43.0416C73.5755 43.3558 71.9145 44.1919 70.5938 45.4454C69.2731 46.6988 68.3514 48.3139 67.944 50.0886L67.8553 50.482C67.1224 53.7027 62.5286 53.6834 61.8189 50.455L61.7456 50.1194C61.3567 48.338 60.4461 46.7126 59.1299 45.4507C57.8137 44.1888 56.1515 43.3474 54.3553 43.0338C50.9957 42.4514 50.9957 37.63 54.3553 37.0437C56.1452 36.7324 57.8026 35.897 59.1175 34.6432C60.4324 33.3894 61.3457 31.7737 61.7417 30.0005L61.7996 29.7498L61.8266 29.6225Z" fill="black"/>
</svg>
