<svg width="18" height="19" viewBox="0 0 18 19" fill="none" xmlns="http://www.w3.org/2000/svg">
<path d="M8.99664 17C8.01173 17 7.03646 16.806 6.12652 16.4291C5.21658 16.0522 4.38978 15.4997 3.69334 14.8033C2.28682 13.3968 1.49664 11.4891 1.49664 9.5C1.49664 7.51088 2.28682 5.60322 3.69334 4.1967C5.09986 2.79018 7.00752 2 8.99664 2C13.1216 2 16.4966 5 16.4966 8.75C16.4966 9.94347 16.0225 11.0881 15.1786 11.932C14.3347 12.7759 13.1901 13.25 11.9966 13.25H10.6466C10.4216 13.25 10.2716 13.4 10.2716 13.625C10.2716 13.7 10.3466 13.775 10.3466 13.85C10.6466 14.225 10.7966 14.675 10.7966 15.125C10.8716 16.175 10.0466 17 8.99664 17ZM8.99664 3.5C7.40534 3.5 5.87922 4.13214 4.754 5.25736C3.62878 6.38258 2.99664 7.9087 2.99664 9.5C2.99664 11.0913 3.62878 12.6174 4.754 13.7426C5.87922 14.8679 7.40534 15.5 8.99664 15.5C9.22164 15.5 9.37164 15.35 9.37164 15.125C9.37164 14.975 9.29664 14.9 9.29664 14.825C8.99664 14.45 8.84664 14.075 8.84664 13.625C8.84664 12.575 9.67164 11.75 10.7216 11.75H11.9966C12.7923 11.75 13.5554 11.4339 14.118 10.8713C14.6806 10.3087 14.9966 9.54565 14.9966 8.75C14.9966 5.825 12.2966 3.5 8.99664 3.5ZM4.87164 8C5.47164 8 5.99664 8.525 5.99664 9.125C5.99664 9.725 5.47164 10.25 4.87164 10.25C4.27164 10.25 3.74664 9.725 3.74664 9.125C3.74664 8.525 4.27164 8 4.87164 8ZM7.12164 5C7.72164 5 8.24664 5.525 8.24664 6.125C8.24664 6.725 7.72164 7.25 7.12164 7.25C6.52164 7.25 5.99664 6.725 5.99664 6.125C5.99664 5.525 6.52164 5 7.12164 5ZM10.8716 5C11.4716 5 11.9966 5.525 11.9966 6.125C11.9966 6.725 11.4716 7.25 10.8716 7.25C10.2716 7.25 9.74664 6.725 9.74664 6.125C9.74664 5.525 10.2716 5 10.8716 5ZM13.1216 8C13.7216 8 14.2466 8.525 14.2466 9.125C14.2466 9.725 13.7216 10.25 13.1216 10.25C12.5216 10.25 11.9966 9.725 11.9966 9.125C11.9966 8.525 12.5216 8 13.1216 8Z" fill="black"/>
</svg>
