<svg width="18" height="19" viewBox="0 0 18 19" fill="none" xmlns="http://www.w3.org/2000/svg">
<g clip-path="url(#clip0_49_3119)">
<path d="M2.99664 5C3.39447 5 3.776 4.84196 4.0573 4.56066C4.33861 4.27936 4.49664 3.89782 4.49664 3.5C4.49664 3.10218 4.33861 2.72064 4.0573 2.43934C3.776 2.15804 3.39447 2 2.99664 2C2.59882 2 2.21729 2.15804 1.93598 2.43934C1.65468 2.72064 1.49664 3.10218 1.49664 3.5C1.49664 3.89782 1.65468 4.27936 1.93598 4.56066C2.21729 4.84196 2.59882 5 2.99664 5ZM3.74664 16.25C4.34338 16.25 4.91568 16.0129 5.33763 15.591C5.75959 15.169 5.99664 14.5967 5.99664 14C5.99664 13.4033 5.75959 12.831 5.33763 12.409C4.91568 11.9871 4.34338 11.75 3.74664 11.75C3.14991 11.75 2.57761 11.9871 2.15565 12.409C1.7337 12.831 1.49664 13.4033 1.49664 14C1.49664 14.5967 1.7337 15.169 2.15565 15.591C2.57761 16.0129 3.14991 16.25 3.74664 16.25ZM14.2466 17C14.8434 17 15.4157 16.7629 15.8376 16.341C16.2596 15.919 16.4966 15.3467 16.4966 14.75C16.4966 14.1533 16.2596 13.581 15.8376 13.159C15.4157 12.7371 14.8434 12.5 14.2466 12.5C13.6499 12.5 13.0776 12.7371 12.6557 13.159C12.2337 13.581 11.9966 14.1533 11.9966 14.75C11.9966 15.3467 12.2337 15.919 12.6557 16.341C13.0776 16.7629 13.6499 17 14.2466 17ZM8.24664 11C9.04229 11 9.80535 10.6839 10.368 10.1213C10.9306 9.55871 11.2466 8.79565 11.2466 8C11.2466 7.20435 10.9306 6.44129 10.368 5.87868C9.80535 5.31607 9.04229 5 8.24664 5C7.45099 5 6.68793 5.31607 6.12532 5.87868C5.56271 6.44129 5.24664 7.20435 5.24664 8C5.24664 8.79565 5.56271 9.55871 6.12532 10.1213C6.68793 10.6839 7.45099 11 8.24664 11ZM12.7466 5C13.1445 5 13.526 4.84196 13.8073 4.56066C14.0886 4.27936 14.2466 3.89782 14.2466 3.5C14.2466 3.10218 14.0886 2.72064 13.8073 2.43934C13.526 2.15804 13.1445 2 12.7466 2C12.3488 2 11.9673 2.15804 11.686 2.43934C11.4047 2.72064 11.2466 3.10218 11.2466 3.5C11.2466 3.89782 11.4047 4.27936 11.686 4.56066C11.9673 4.84196 12.3488 5 12.7466 5Z" stroke="black" stroke-width="1.5" stroke-linecap="round" stroke-linejoin="round"/>
<path d="M4.12164 4.625L5.62164 6.125M11.2466 5L10.4966 5.75M12.7466 13.0625L10.4966 10.25M5.24664 12.125L6.74664 10.625" stroke="black" stroke-width="1.5" stroke-linecap="round" stroke-linejoin="round"/>
</g>
<defs>
<clipPath id="clip0_49_3119">
<rect width="18" height="18" fill="white" transform="translate(-0.00335693 0.5)"/>
</clipPath>
</defs>
</svg>
