<svg width="19" height="19" viewBox="0 0 19 19" fill="none" xmlns="http://www.w3.org/2000/svg">
<g clip-path="url(#clip0_49_3013)">
<path d="M9.49664 19C14.7433 19 18.9966 14.7467 18.9966 9.5C18.9966 4.25329 14.7433 0 9.49664 0C4.24994 0 -0.00335693 4.25329 -0.00335693 9.5C-0.00335693 14.7467 4.24994 19 9.49664 19Z" fill="#141726"/>
<path d="M12.7267 13.5113C11.1402 10.9344 8.77468 9.47381 5.85343 8.86581C4.8203 8.65206 3.78243 8.65444 2.78018 9.04869C2.0938 9.31944 1.9893 9.60444 2.3123 10.3241C4.5068 9.80394 6.5493 10.2884 8.46118 11.3928C10.3873 12.5067 11.8242 14.0576 12.4773 16.2616C13.3941 15.9813 13.5128 15.8269 13.2919 14.9743C13.1613 14.4732 12.9974 13.9507 12.7267 13.5113Z" fill="white"/>
<path d="M14.4628 11.4143C12.425 8.44558 9.53938 6.78545 6.0125 6.2297C5.07913 6.08245 4.12675 6.12283 3.25275 6.56933C2.83475 6.78308 2.46425 7.05621 2.3645 7.63571C5.11475 6.87808 7.58238 7.54783 9.90513 8.89446C12.2398 10.2482 14.0638 12.0651 14.7739 14.8581C15.2679 14.4211 15.3558 13.8843 15.2275 13.3856C15.0518 12.7016 14.8523 11.982 14.4628 11.4143Z" fill="white"/>
<path d="M2.49042 11.6041C2.66379 11.9889 2.77779 12.4235 3.03667 12.7346C3.16729 12.8938 3.56392 12.832 3.83942 12.87C3.88217 12.8748 3.92492 12.8819 3.96767 12.8866C6.41154 13.25 8.34004 14.4328 9.71754 16.4966C9.79829 16.6178 9.92892 16.7983 10.0358 16.7983C10.449 16.7959 10.8647 16.7318 11.2827 16.6914C10.6604 13.2405 5.52567 10.4095 2.49042 11.6041Z" fill="white"/>
<path d="M15.5909 8.70918C14.2443 6.82581 12.387 5.57181 10.278 4.67881C8.81742 4.05893 7.30455 3.68606 5.69905 3.87843C5.1433 3.94493 4.62317 4.10406 4.1933 4.46506C9.67717 4.60281 13.8025 6.97781 16.6383 11.6684C16.643 11.3573 16.6905 11.0106 16.5765 10.7303C16.2915 10.0344 16.0208 9.31006 15.5909 8.70918Z" fill="white"/>
<path d="M16.8544 7.72579C15.7381 3.47691 11.2019 1.43204 7.84839 2.46754C11.4608 3.18004 14.4248 4.90191 16.8544 7.72579Z" fill="white"/>
<path d="M3.68738 13.8675C4.98413 15.5134 6.63238 16.4729 8.74613 16.784C7.93863 15.2759 5.09338 13.6443 3.68738 13.8675Z" fill="black" fill-opacity="0.2"/>
</g>
<defs>
<clipPath id="clip0_49_3013">
<rect width="19" height="19" fill="white" transform="translate(-0.00335693)"/>
</clipPath>
</defs>
</svg>
