<svg width="19" height="19" viewBox="0 0 19 19" fill="none" xmlns="http://www.w3.org/2000/svg">
<path d="M9.98987 13.25C10.2024 13.25 10.3806 13.178 10.5246 13.034C10.6686 12.89 10.7404 12.712 10.7399 12.5C10.7394 12.288 10.6674 12.11 10.5239 11.966C10.3804 11.822 10.2024 11.75 9.98987 11.75C9.77737 11.75 9.59937 11.822 9.45587 11.966C9.31237 12.11 9.24037 12.288 9.23987 12.5C9.23937 12.712 9.31137 12.8902 9.45587 13.0347C9.60037 13.1792 9.77837 13.251 9.98987 13.25ZM9.23987 10.25H10.7399V5.75H9.23987V10.25ZM9.98987 17C8.95237 17 7.97737 16.803 7.06487 16.409C6.15237 16.015 5.35862 15.4808 4.68362 14.8063C4.00862 14.1318 3.47437 13.338 3.08087 12.425C2.68737 11.512 2.49037 10.537 2.48987 9.5C2.48937 8.463 2.68637 7.488 3.08087 6.575C3.47537 5.662 4.00962 4.86825 4.68362 4.19375C5.35762 3.51925 6.15137 2.985 7.06487 2.591C7.97837 2.197 8.95337 2 9.98987 2C11.0264 2 12.0014 2.197 12.9149 2.591C13.8284 2.985 14.6221 3.51925 15.2961 4.19375C15.9701 4.86825 16.5046 5.662 16.8996 6.575C17.2946 7.488 17.4914 8.463 17.4899 9.5C17.4884 10.537 17.2914 11.512 16.8989 12.425C16.5064 13.338 15.9721 14.1318 15.2961 14.8063C14.6201 15.4808 13.8264 16.0152 12.9149 16.4097C12.0034 16.8042 11.0284 17.001 9.98987 17ZM9.98987 15.5C11.6649 15.5 13.0836 14.9187 14.2461 13.7562C15.4086 12.5937 15.9899 11.175 15.9899 9.5C15.9899 7.825 15.4086 6.40625 14.2461 5.24375C13.0836 4.08125 11.6649 3.5 9.98987 3.5C8.31487 3.5 6.89612 4.08125 5.73362 5.24375C4.57112 6.40625 3.98987 7.825 3.98987 9.5C3.98987 11.175 4.57112 12.5937 5.73362 13.7562C6.89612 14.9187 8.31487 15.5 9.98987 15.5Z" fill="black"/>
</svg>
