<svg width="18" height="19" viewBox="0 0 18 19" fill="none" xmlns="http://www.w3.org/2000/svg">
<path d="M14.9216 9.99504C14.8014 9.85818 14.7351 9.68222 14.7351 9.50004C14.7351 9.31786 14.8014 9.14191 14.9216 9.00504L15.8816 7.92504C15.9874 7.80704 16.0531 7.65857 16.0693 7.50092C16.0854 7.34328 16.0513 7.18456 15.9716 7.04754L14.4716 4.45254C14.3928 4.31568 14.2728 4.2072 14.1287 4.14256C13.9846 4.07791 13.8238 4.06041 13.6691 4.09254L12.2591 4.37754C12.0797 4.41461 11.8929 4.38474 11.734 4.29354C11.5751 4.20235 11.4551 4.05616 11.3966 3.88254L10.9391 2.51004C10.8888 2.36108 10.793 2.23169 10.6651 2.14017C10.5372 2.04866 10.3839 1.99964 10.2266 2.00004H7.22663C7.06308 1.99151 6.90123 2.03674 6.7658 2.12883C6.63037 2.22092 6.52881 2.35481 6.47663 2.51004L6.05663 3.88254C5.99813 4.05616 5.87811 4.20235 5.71921 4.29354C5.56032 4.38474 5.37354 4.41461 5.19413 4.37754L3.74663 4.09254C3.60004 4.07183 3.4506 4.09496 3.31714 4.15902C3.18367 4.22309 3.07215 4.32521 2.99663 4.45254L1.49663 7.04754C1.415 7.18303 1.37829 7.34086 1.39176 7.49846C1.40523 7.65606 1.46819 7.80537 1.57163 7.92504L2.52413 9.00504C2.64437 9.14191 2.71068 9.31786 2.71068 9.50004C2.71068 9.68222 2.64437 9.85818 2.52413 9.99504L1.57163 11.075C1.46819 11.1947 1.40523 11.344 1.39176 11.5016C1.37829 11.6592 1.415 11.8171 1.49663 11.9525L2.99663 14.5475C3.07545 14.6844 3.19547 14.7929 3.33957 14.8575C3.48367 14.9222 3.64449 14.9397 3.79913 14.9075L5.20913 14.6225C5.38854 14.5855 5.57532 14.6154 5.73421 14.7065C5.89311 14.7977 6.01313 14.9439 6.07163 15.1175L6.52913 16.49C6.58131 16.6453 6.68287 16.7792 6.8183 16.8713C6.95373 16.9633 7.11558 17.0086 7.27913 17H10.2791C10.4364 17.0004 10.5897 16.9514 10.7176 16.8599C10.8455 16.7684 10.9413 16.639 10.9916 16.49L11.4491 15.1175C11.5076 14.9439 11.6276 14.7977 11.7865 14.7065C11.9454 14.6154 12.1322 14.5855 12.3116 14.6225L13.7216 14.9075C13.8763 14.9397 14.0371 14.9222 14.1812 14.8575C14.3253 14.7929 14.4453 14.6844 14.5241 14.5475L16.0241 11.9525C16.1038 11.8155 16.1379 11.6568 16.1218 11.4992C16.1056 11.3415 16.0399 11.193 15.9341 11.075L14.9216 9.99504ZM13.8041 11L14.4041 11.675L13.4441 13.34L12.5591 13.16C12.019 13.0496 11.4571 13.1414 10.9801 13.4179C10.5031 13.6944 10.1442 14.1364 9.97163 14.66L9.68663 15.5H7.76663L7.49663 14.645C7.32402 14.1214 6.96516 13.6794 6.48818 13.4029C6.0112 13.1264 5.44929 13.0346 4.90913 13.145L4.02413 13.325L3.04913 11.6675L3.64913 10.9925C4.01809 10.58 4.22208 10.046 4.22208 9.49254C4.22208 8.93909 4.01809 8.40506 3.64913 7.99254L3.04913 7.31754L4.00913 5.66754L4.89413 5.84754C5.43429 5.95796 5.9962 5.8662 6.47318 5.58969C6.95016 5.31318 7.30902 4.87116 7.48163 4.34754L7.76663 3.50004H9.68663L9.97163 4.35504C10.1442 4.87866 10.5031 5.32068 10.9801 5.59719C11.4571 5.8737 12.019 5.96546 12.5591 5.85504L13.4441 5.67504L14.4041 7.34004L13.8041 8.01504C13.4393 8.42661 13.2379 8.95755 13.2379 9.50754C13.2379 10.0575 13.4393 10.5885 13.8041 11ZM8.72663 6.50004C8.13328 6.50004 7.55326 6.67599 7.05992 7.00563C6.56657 7.33528 6.18205 7.80381 5.95499 8.35199C5.72792 8.90017 5.66851 9.50337 5.78427 10.0853C5.90003 10.6673 6.18575 11.2018 6.60531 11.6214C7.02486 12.0409 7.55941 12.3266 8.14136 12.4424C8.7233 12.5582 9.3265 12.4987 9.87468 12.2717C10.4229 12.0446 10.8914 11.6601 11.221 11.1668C11.5507 10.6734 11.7266 10.0934 11.7266 9.50004C11.7266 8.70439 11.4106 7.94133 10.8479 7.37872C10.2853 6.81611 9.52228 6.50004 8.72663 6.50004ZM8.72663 11C8.42995 11 8.13994 10.9121 7.89327 10.7472C7.6466 10.5824 7.45434 10.3482 7.34081 10.0741C7.22728 9.79998 7.19757 9.49838 7.25545 9.20741C7.31333 8.91644 7.45619 8.64916 7.66597 8.43938C7.87574 8.2296 8.14302 8.08674 8.43399 8.02887C8.72496 7.97099 9.02656 8.00069 9.30065 8.11422C9.57474 8.22776 9.80901 8.42001 9.97383 8.66669C10.1387 8.91336 10.2266 9.20337 10.2266 9.50004C10.2266 9.89787 10.0686 10.2794 9.78729 10.5607C9.50598 10.842 9.12445 11 8.72663 11Z" fill="black"/>
</svg>
