<svg width="18" height="19" viewBox="0 0 18 19" fill="none" xmlns="http://www.w3.org/2000/svg">
<g clip-path="url(#clip0_49_3097)">
<path d="M6.02287 5.375C2.34149 5.50625 1.75012 8.37725 1.91437 9.79663C1.25699 10.976 1.45762 11.2704 1.95037 11.7616C4.41562 14.0547 9.01649 13.8909 11.1529 13.0723C13.3879 12.155 14.5275 10.4281 14.6366 9.5C16.6091 8.18975 16.6489 5.97537 16.3751 5.375C16.0826 5.86625 15.2392 6.227 14.637 6.5C13.9796 6.63125 13.0339 6.13925 12.7601 5.70238C12.5719 6.6875 12.7601 7.4375 13.2529 7.83163C14.1109 8.48675 13.6747 9.14862 13.5105 9.3125C12.7995 10.0212 11.4457 9.68375 10.788 8.65025C9.01649 5.86625 7.11824 5.375 6.02287 5.375Z" stroke="black" stroke-width="1.5" stroke-linecap="round" stroke-linejoin="round"/>
<path d="M1.87164 11C2.93402 11.1995 5.02164 11.5827 6.37164 10.625" stroke="black" stroke-width="1.5" stroke-linecap="round" stroke-linejoin="round"/>
<path d="M4.49664 8.75C4.91086 8.75 5.24664 8.41421 5.24664 8C5.24664 7.58579 4.91086 7.25 4.49664 7.25C4.08243 7.25 3.74664 7.58579 3.74664 8C3.74664 8.41421 4.08243 8.75 4.49664 8.75Z" fill="black"/>
</g>
<defs>
<clipPath id="clip0_49_3097">
<rect width="18" height="18" fill="white" transform="translate(-0.00335693 0.5)"/>
</clipPath>
</defs>
</svg>
