<svg width="19" height="19" viewBox="0 0 19 19" fill="none" xmlns="http://www.w3.org/2000/svg">
<path d="M7.73987 9.5C8.13769 9.5 8.51922 9.34196 8.80053 9.06066C9.08183 8.77936 9.23987 8.39782 9.23987 8C9.23987 7.60218 9.08183 7.22064 8.80053 6.93934C8.51922 6.65804 8.13769 6.5 7.73987 6.5C7.34204 6.5 6.96051 6.65804 6.67921 6.93934C6.3979 7.22064 6.23987 7.60218 6.23987 8C6.23987 8.39782 6.3979 8.77936 6.67921 9.06066C6.96051 9.34196 7.34204 9.5 7.73987 9.5ZM17.1149 5.375L9.98987 1.25L2.86487 5.375V13.625L9.98987 17.75L17.1149 13.625V5.375ZM9.98987 2.98325L15.6149 6.23975V11.3997L12.1934 9.34775L6.21512 13.8312L4.36487 12.7603V6.23975L9.98987 2.98325ZM9.98987 16.0167L7.62587 14.648L12.2864 11.153L15.2849 12.9515L9.98987 16.0167Z" fill="black"/>
</svg>
