<svg width="18" height="19" viewBox="0 0 18 19" fill="none" xmlns="http://www.w3.org/2000/svg">
<path d="M9.74664 12.5044L14.9966 12.4691V4.9939L11.1191 4.99915L9.75864 6.35965L9.74664 12.5044ZM8.24664 6.35965L6.88089 5.0284L2.99664 5.00215V12.4691L8.24664 12.5044V6.35965ZM7.49664 3.53215L8.99664 4.9999L10.4966 3.4999L14.9944 3.4939C15.1914 3.4936 15.3865 3.53211 15.5686 3.60722C15.7507 3.68233 15.9162 3.79257 16.0557 3.93165C16.1952 4.07073 16.3059 4.23592 16.3816 4.41779C16.4573 4.59967 16.4963 4.79467 16.4966 4.99165V12.4691C16.4967 12.8652 16.3401 13.2451 16.061 13.5261C15.782 13.8071 15.4031 13.9664 15.0071 13.9691L10.4966 13.9999L8.99964 15.4999L7.49664 13.9999L2.98614 13.9691C2.59014 13.9664 2.2113 13.8071 1.93226 13.5261C1.65323 13.2451 1.49663 12.8652 1.49664 12.4691V5.00215C1.49664 4.60432 1.65468 4.22279 1.93598 3.94149C2.21729 3.66018 2.59882 3.50215 2.99664 3.50215L7.49664 3.53215Z" fill="black"/>
</svg>
