<svg width="16" height="19" viewBox="0 0 16 19" fill="none" xmlns="http://www.w3.org/2000/svg">
<g clip-path="url(#clip0_49_2999)">
<path d="M14.7771 7.28049V13.5732L7.80152 17.5732L0.825911 13.5244V5.47561L7.80152 1.42683L13.1674 4.54878L13.9966 4.06098L7.80152 0.5L-0.00335693 4.9878V14.0122L7.80152 18.5L15.6064 14.0122V6.79268L14.7771 7.28049Z" fill="black"/>
<path d="M5.85036 13.5731H4.67963V9.67065H8.58207C8.97231 9.67065 9.31377 9.52431 9.55767 9.23163C9.80158 8.98773 9.94792 8.59748 9.94792 8.25602C9.94792 8.0609 9.89914 7.91456 9.85036 7.71943C9.80158 7.57309 9.65524 7.37797 9.55767 7.28041C9.41133 7.13407 9.26499 7.03651 9.11865 6.98773C8.97231 6.93895 8.77719 6.84139 8.58207 6.84139H4.67963V5.67065H8.58207C9.26499 5.67065 9.89914 5.96334 10.3869 6.45114C10.8747 6.93895 11.1674 7.57309 11.1674 8.25602C11.1674 8.7926 11.0211 9.28041 10.7284 9.71943C10.4357 10.1097 10.0455 10.4511 9.60646 10.6463C9.16743 10.7926 8.67963 10.8414 8.19182 10.8414H5.85036V13.5731Z" fill="black"/>
<path d="M11.118 13.4755H9.75213L8.67896 11.6218C9.11798 11.5731 9.50822 11.5243 9.89847 11.3779L11.118 13.4755Z" fill="black"/>
<path d="M13.9962 5.96341L14.8254 6.40244L15.6547 5.96341V4.9878L14.8254 4.5L13.9962 4.9878V5.96341Z" fill="black"/>
</g>
<defs>
<clipPath id="clip0_49_2999">
<rect width="15.6098" height="18" fill="white" transform="translate(-0.00335693 0.5)"/>
</clipPath>
</defs>
</svg>
