<svg width="15" height="19" viewBox="0 0 15 19" fill="none" xmlns="http://www.w3.org/2000/svg">
<g clip-path="url(#clip0_49_3069)">
<path d="M8.97232 7.69989C8.97232 8.69393 8.16854 9.49992 7.17721 9.49992V11.2999C9.15987 11.2999 10.7674 9.68797 10.7674 7.69989C10.7674 5.71182 9.15987 4.09985 7.17721 4.09985C6.52363 4.09985 5.90983 4.2749 5.38209 4.58181C4.30876 5.2038 3.58698 6.36718 3.58698 7.69989V16.7L5.20104 18.3184L5.38209 18.5V7.69989C5.38209 6.70585 6.18588 5.89988 7.17721 5.89988C8.16854 5.89988 8.97232 6.70585 8.97232 7.69989Z" fill="#110F23"/>
<path d="M7.1771 0.5C5.86912 0.5 4.64316 0.850885 3.58687 1.46392C2.91055 1.85551 2.30488 2.35456 1.79176 2.93829C0.674581 4.2075 -0.00335693 5.87482 -0.00335693 7.70007V13.1001L1.79176 14.9001V7.70007C1.79176 6.10115 2.48512 4.66423 3.58687 3.67507C4.10487 3.21101 4.71299 2.84467 5.38199 2.60858C5.94302 2.40829 6.54789 2.30002 7.1771 2.30002C10.1511 2.30002 12.5625 4.71796 12.5625 7.70007C12.5625 10.6822 10.1511 13.1001 7.1771 13.1001V14.9001C11.1432 14.9001 14.3576 11.6762 14.3576 7.70007C14.3576 3.72392 11.1432 0.5 7.1771 0.5Z" fill="#110F23"/>
</g>
<defs>
<clipPath id="clip0_49_3069">
<rect width="14.3609" height="18" fill="white" transform="translate(-0.00335693 0.5)"/>
</clipPath>
</defs>
</svg>
