<svg width="19" height="19" viewBox="0 0 19 19" fill="none" xmlns="http://www.w3.org/2000/svg">
<path d="M2.48987 15.5V13.4C2.48987 12.9875 2.59612 12.6 2.80862 12.2375C3.02112 11.875 3.31487 11.6 3.68987 11.4125C4.32737 11.0875 5.04612 10.8125 5.84612 10.5875C6.64612 10.3625 7.52737 10.25 8.48987 10.25C8.86487 10.25 9.23062 10.2687 9.58712 10.3062C9.94362 10.3438 10.2904 10.4 10.6274 10.475L9.31487 11.7875C9.17737 11.7625 9.04312 11.75 8.91212 11.75H8.48987C7.60237 11.75 6.80562 11.8562 6.09962 12.0688C5.39362 12.2812 4.81537 12.5125 4.36487 12.7625C4.25237 12.825 4.16162 12.9125 4.09262 13.025C4.02362 13.1375 3.98937 13.2625 3.98987 13.4V14H8.67737L10.1774 15.5H2.48987ZM12.6524 15.8L10.0649 13.2125L11.1149 12.1625L12.6524 13.7L16.4399 9.9125L17.4899 10.9625L12.6524 15.8ZM8.48987 9.5C7.66487 9.5 6.95862 9.20625 6.37112 8.61875C5.78362 8.03125 5.48987 7.325 5.48987 6.5C5.48987 5.675 5.78362 4.96875 6.37112 4.38125C6.95862 3.79375 7.66487 3.5 8.48987 3.5C9.31487 3.5 10.0211 3.79375 10.6086 4.38125C11.1961 4.96875 11.4899 5.675 11.4899 6.5C11.4899 7.325 11.1961 8.03125 10.6086 8.61875C10.0211 9.20625 9.31487 9.5 8.48987 9.5ZM8.48987 8C8.90237 8 9.25562 7.85325 9.54962 7.55975C9.84362 7.26625 9.99037 6.913 9.98987 6.5C9.98937 6.087 9.84262 5.734 9.54962 5.441C9.25662 5.148 8.90337 5.001 8.48987 5C8.07637 4.999 7.72337 5.146 7.43087 5.441C7.13837 5.736 6.99137 6.089 6.98987 6.5C6.98837 6.911 7.13537 7.26425 7.43087 7.55975C7.72637 7.85525 8.07937 8.002 8.48987 8Z" fill="black"/>
</svg>
