<svg width="19" height="19" viewBox="0 0 19 19" fill="none" xmlns="http://www.w3.org/2000/svg">
<path d="M9.98987 13.25C9.59204 13.25 9.21051 13.092 8.92921 12.8107C8.6479 12.5294 8.48987 12.1478 8.48987 11.75C8.48987 10.9175 9.15737 10.25 9.98987 10.25C10.3877 10.25 10.7692 10.408 11.0505 10.6893C11.3318 10.9706 11.4899 11.3522 11.4899 11.75C11.4899 12.1478 11.3318 12.5294 11.0505 12.8107C10.7692 13.092 10.3877 13.25 9.98987 13.25ZM14.4899 15.5V8H5.48987V15.5H14.4899ZM14.4899 6.5C14.8877 6.5 15.2692 6.65804 15.5505 6.93934C15.8318 7.22064 15.9899 7.60218 15.9899 8V15.5C15.9899 15.8978 15.8318 16.2794 15.5505 16.5607C15.2692 16.842 14.8877 17 14.4899 17H5.48987C5.09204 17 4.71051 16.842 4.42921 16.5607C4.1479 16.2794 3.98987 15.8978 3.98987 15.5V8C3.98987 7.1675 4.65737 6.5 5.48987 6.5H6.23987V5C6.23987 4.00544 6.63496 3.05161 7.33822 2.34835C8.04148 1.64509 8.99531 1.25 9.98987 1.25C10.4823 1.25 10.97 1.347 11.4249 1.53545C11.8799 1.72391 12.2933 2.00013 12.6415 2.34835C12.9897 2.69657 13.266 3.10997 13.4544 3.56494C13.6429 4.01991 13.7399 4.50754 13.7399 5V6.5H14.4899ZM9.98987 2.75C9.39313 2.75 8.82083 2.98705 8.39888 3.40901C7.97692 3.83097 7.73987 4.40326 7.73987 5V6.5H12.2399V5C12.2399 4.40326 12.0028 3.83097 11.5809 3.40901C11.1589 2.98705 10.5866 2.75 9.98987 2.75Z" fill="black"/>
</svg>
