<svg width="19" height="19" viewBox="0 0 19 19" fill="none" xmlns="http://www.w3.org/2000/svg">
<path d="M9.98315 2C5.84765 2 2.48315 5.3645 2.48315 9.5V12.6073C2.48315 13.3752 3.1559 14 3.98315 14H4.73315C4.93207 14 5.12283 13.921 5.26348 13.7803C5.40414 13.6397 5.48315 13.4489 5.48315 13.25V9.39275C5.48315 9.19384 5.40414 9.00307 5.26348 8.86242C5.12283 8.72177 4.93207 8.64275 4.73315 8.64275H4.05215C4.46915 5.74025 6.96665 3.5 9.98315 3.5C12.9997 3.5 15.4972 5.74025 15.9142 8.64275H15.2332C15.0342 8.64275 14.8435 8.72177 14.7028 8.86242C14.5622 9.00307 14.4832 9.19384 14.4832 9.39275V14C14.4832 14.8273 13.8104 15.5 12.9832 15.5H11.4832V14.75H8.48315V17H12.9832C14.6377 17 15.9832 15.6545 15.9832 14C16.8104 14 17.4832 13.3752 17.4832 12.6073V9.5C17.4832 5.3645 14.1187 2 9.98315 2Z" fill="black"/>
</svg>
