<svg width="19" height="19" viewBox="0 0 19 19" fill="none" xmlns="http://www.w3.org/2000/svg">
<path d="M18.5996 9.5C18.5996 14.4659 14.5761 18.5 9.59961 18.5C4.63373 18.5 0.599609 14.4765 0.599609 9.5C0.599609 4.53412 4.62314 0.5 9.59961 0.5C14.5761 0.5 18.5996 4.53412 18.5996 9.5Z" fill="#DEDEDE"/>
<path d="M5.2478 13.1847C5.32192 13.1318 5.39604 13.0577 5.43839 12.9412C5.48074 12.8142 5.45957 12.7083 5.43839 12.6447C5.43839 12.6447 5.43839 12.6447 5.43839 12.6342L5.44898 12.5494C5.49133 12.5706 5.53369 12.6024 5.59721 12.6447C5.6078 12.6553 5.62898 12.6659 5.65016 12.6765C5.67133 12.6977 5.7031 12.7083 5.71369 12.7294C5.74545 12.7506 5.7878 12.7824 5.83016 12.8036C7.02663 13.5447 8.02192 13.8518 8.80545 13.82C9.62074 13.7777 10.1925 13.3753 10.489 12.7718C10.7749 12.1894 10.7854 11.48 10.5843 10.813C10.3831 10.1459 9.95957 9.50003 9.33486 9.04474C8.27604 8.29297 7.30192 7.13886 6.80427 6.15415C6.55016 5.6565 6.45486 5.25415 6.48663 4.98944C6.49721 4.86238 6.53957 4.79886 6.58192 4.74591C6.62427 4.70356 6.70898 4.65062 6.8678 4.61886C7.19604 4.56591 7.5878 4.44944 7.96898 4.32238C8.11721 4.28003 8.27604 4.22709 8.42427 4.18474C8.98545 4.01533 9.57839 3.87768 10.2031 3.88827C11.4207 3.88827 12.8396 4.41768 14.3431 6.60944C16.2702 9.42591 15.2113 12.5706 12.9984 14.2224C11.8972 15.0483 10.5102 15.4824 9.09133 15.313C7.79957 15.1753 6.46545 14.5294 5.2478 13.1847Z" fill="white" stroke="black" stroke-width="0.724479"/>
<path d="M6.349 4.77753C6.349 4.77753 9.79018 3.86694 10.5419 3.86694C11.2937 3.86694 14.3008 5.32812 15.1796 7.99636C16.429 11.7764 13.0408 14.2646 12.6596 14.0211C16.3019 11.014 10.3408 5.44459 7.40782 5.85753C7.03723 5.91047 7.249 6.22812 7.249 6.22812L7.16429 7.04341L6.55018 6.02694L6.349 4.77753Z" fill="black"/>
<path d="M14.682 6.85303C15.7726 8.7695 15.5397 7.66832 15.2961 9.86009C15.7408 9.14009 16.4397 9.68008 16.7255 9.95538C16.7785 10.0083 16.8632 9.97656 16.8632 9.90244C16.8526 9.5742 16.7573 8.87538 16.2279 8.12362C15.4867 7.08597 14.682 6.85303 14.682 6.85303Z" fill="black"/>
<path d="M15.2961 9.86009C15.5397 7.67891 15.762 8.7695 14.682 6.85303C14.682 6.85303 15.4867 7.08597 16.2279 8.12362C16.7679 8.87538 16.8526 9.5742 16.8632 9.90244C16.8632 9.97656 16.7785 10.0083 16.7255 9.95538C16.4397 9.6695 15.7408 9.1295 15.2961 9.86009ZM15.2961 9.86009C15.3385 9.7542 15.402 9.59538 15.402 9.59538" stroke="black" stroke-width="0.0407012"/>
<path d="M5.94665 9.56349C5.49135 10.3364 4.549 10.2835 4.57018 11.2047C5.40665 13.0682 5.41723 12.9411 5.41723 12.9411C6.9737 12.0623 6.33841 10.1353 6.10547 9.57408C6.06312 9.49996 5.97841 9.49996 5.94665 9.56349Z" fill="black"/>
<path d="M2.42081 11.2789C3.31022 11.3954 3.85022 10.6224 4.57022 11.2048C5.52316 13.0154 5.41728 12.9413 5.41728 12.9413C3.7761 13.6295 2.64316 11.9354 2.3361 11.406C2.29375 11.3424 2.34669 11.2683 2.42081 11.2789Z" fill="black"/>
<path d="M9.9067 10.1247C9.9067 10.1247 10.8067 11.0353 10.3302 11.1836C9.74788 10.8236 8.69964 11.0989 8.19141 11.2789C8.06435 11.3212 7.93729 11.2047 7.99023 11.0883C8.15964 10.6118 8.59376 9.72238 9.41964 9.60591C9.9067 9.47885 9.9067 10.1247 9.9067 10.1247Z" fill="black"/>
<path d="M10.4573 5.65636C10.3514 5.51872 10.1502 5.12695 10.7855 5.12695C11.4208 5.12695 12.3843 5.83637 12.5749 6.10107C12.5114 6.2599 12.109 6.30225 11.9078 6.28107C11.7067 6.27049 11.3573 6.22813 11.0925 6.10107C10.8278 5.96343 10.5631 5.79401 10.4573 5.65636Z" fill="white"/>
</svg>
